<svg width="25" height="25" viewBox="0 0 25 25" fill="none" xmlns="http://www.w3.org/2000/svg">
<g id="bell">
<path id="Vector" d="M18.4098 8.5C18.4098 6.9087 17.7776 5.38258 16.6524 4.25736C15.5272 3.13214 14.0011 2.5 12.4098 2.5C10.8185 2.5 9.29237 3.13214 8.16715 4.25736C7.04193 5.38258 6.40979 6.9087 6.40979 8.5C6.40979 15.5 3.40979 17.5 3.40979 17.5H21.4098C21.4098 17.5 18.4098 15.5 18.4098 8.5Z" stroke="white" stroke-width="2" stroke-linecap="round" stroke-linejoin="round"/>
<path id="Vector_2" d="M14.1398 21.5C13.964 21.8031 13.7117 22.0547 13.408 22.2295C13.1044 22.4044 12.7602 22.4965 12.4098 22.4965C12.0594 22.4965 11.7152 22.4044 11.4116 22.2295C11.108 22.0547 10.8556 21.8031 10.6798 21.5" stroke="white" stroke-width="2" stroke-linecap="round" stroke-linejoin="round"/>
</g>
</svg>
