<svg width="32" height="32" viewBox="0 0 32 32" fill="none" xmlns="http://www.w3.org/2000/svg">
<g id="tabler-icon-shopping-cart-filled">
<path id="Vector" d="M8.38007 3.29999C8.69113 3.30003 8.99137 3.41423 9.22382 3.62094C9.45628 3.82764 9.60478 4.11247 9.64118 4.4214L9.65007 4.56999V5.92635L26.2502 7.1138C26.5765 7.13691 26.8813 7.28503 27.1011 7.52729C27.3209 7.76956 27.4387 8.08729 27.4301 8.41428L27.4174 8.55906L26.1474 17.4491C26.1078 17.7275 25.977 17.9849 25.7755 18.1809C25.5739 18.377 25.313 18.5006 25.0336 18.5324L24.8901 18.54H9.65007V21.08H22.3501C23.0941 21.08 23.8218 21.2979 24.4434 21.7067C25.0651 22.1156 25.5534 22.6975 25.8481 23.3806C26.1429 24.0638 26.2312 24.8183 26.1021 25.551C25.973 26.2837 25.6322 26.9626 25.1218 27.5039C24.6113 28.0452 23.9535 28.4252 23.2296 28.597C22.5057 28.7688 21.7474 28.7249 21.0481 28.4707C20.3489 28.2165 19.7394 27.7631 19.2948 27.1665C18.8502 26.5699 18.5901 25.8562 18.5464 25.1135L18.5401 24.89L18.5464 24.6665C18.568 24.3007 18.6404 23.9502 18.7572 23.62H11.9729C12.1542 24.1341 12.223 24.6812 12.1747 25.2242C12.1264 25.7672 11.9622 26.2936 11.693 26.7677C11.4239 27.2418 11.0562 27.6526 10.6147 27.9724C10.1731 28.2922 9.66815 28.5135 9.13377 28.6214C8.5994 28.7293 8.04809 28.7213 7.51708 28.5979C6.98607 28.4744 6.48774 28.2385 6.05573 27.906C5.62373 27.5734 5.26811 27.1521 5.01291 26.6703C4.75771 26.1886 4.60886 25.6577 4.57642 25.1135L4.57007 24.89L4.57642 24.6665C4.62037 23.9177 4.88419 23.1986 5.33486 22.599C5.78553 21.9995 6.40303 21.5462 7.11007 21.2959V5.83999H5.84007C5.529 5.83995 5.22877 5.72574 4.99632 5.51904C4.76386 5.31234 4.61535 5.02751 4.57896 4.71858L4.57007 4.56999C4.57011 4.25892 4.68431 3.95869 4.89102 3.72624C5.09772 3.49378 5.38255 3.34527 5.69148 3.30888L5.84007 3.29999H8.38007ZM8.38007 23.62C8.04324 23.62 7.72021 23.7538 7.48204 23.992C7.24387 24.2301 7.11007 24.5532 7.11007 24.89C7.11007 25.2268 7.24387 25.5498 7.48204 25.788C7.72021 26.0262 8.04324 26.16 8.38007 26.16C8.71689 26.16 9.03992 26.0262 9.27809 25.788C9.51627 25.5498 9.65007 25.2268 9.65007 24.89C9.65007 24.5532 9.51627 24.2301 9.27809 23.992C9.03992 23.7538 8.71689 23.62 8.38007 23.62ZM22.3501 23.62C22.0132 23.62 21.6902 23.7538 21.452 23.992C21.2139 24.2301 21.0801 24.5532 21.0801 24.89C21.0801 25.2268 21.2139 25.5498 21.452 25.788C21.6902 26.0262 22.0132 26.16 22.3501 26.16C22.6869 26.16 23.0099 26.0262 23.2481 25.788C23.4863 25.5498 23.6201 25.2268 23.6201 24.89C23.6201 24.5532 23.4863 24.2301 23.2481 23.992C23.0099 23.7538 22.6869 23.62 22.3501 23.62Z" fill="#8BD838"/>
</g>
</svg>
